# xmcd
#
# Track frame offsets:
#	150
#	19742
#	45092
#	64472
#
# Disc length: 1111 seconds
#
# Revision: 3
# Processed by: cddbd v1.5.2PL0 Copyright (c) Steve Scherf et al.
# Submitted via: audiograbber 1.83.01
#
DISCID=2a045504
DTITLE=Jon Secada - Just Another Day
DYEAR=1992
DGENRE=Soul
TTITLE0=Just Another Day (English Edit)
TTITLE1=Just Another Day (Dance Mix)
TTITLE2=Just Another Day (Spanisch Edit)
TTITLE3=Always Something (Live Bonus Track)
EXTD=
EXTT0=
EXTT1=
EXTT2=
EXTT3=
PLAYORDER=
